<svg width="24" height="24" viewBox="0 0 24 24" fill="none" xmlns="http://www.w3.org/2000/svg">
<mask id="mask0_467_819" style="mask-type:alpha" maskUnits="userSpaceOnUse" x="0" y="0" width="24" height="25">
<rect y="0.00390625" width="24" height="24" fill="#FFF9E3"/>
</mask>
<g mask="url(#mask0_467_819)">
<path d="M18.9307 20.0039C17.2449 20.0039 15.5167 19.5818 13.7462 18.7377C11.9757 17.8933 10.3308 16.7083 8.8115 15.1827C7.29233 13.6572 6.11058 12.0123 5.26625 10.2482C4.42208 8.48399 4 6.75899 4 5.07316C4 4.76766 4.1 4.51307 4.3 4.30941C4.5 4.10574 4.75 4.00391 5.05 4.00391H7.523C7.79483 4.00391 8.032 4.08949 8.2345 4.26066C8.43717 4.43182 8.57442 4.65141 8.64625 4.91941L9.14225 7.30391C9.18842 7.58341 9.18008 7.82766 9.11725 8.03666C9.05442 8.24566 8.9435 8.41682 8.7845 8.55016L6.5905 10.5962C7.00067 11.341 7.45417 12.033 7.951 12.6722C8.44783 13.3113 8.97767 13.9167 9.5405 14.4884C10.1212 15.0692 10.7462 15.6093 11.4155 16.1087C12.0847 16.608 12.8193 17.0795 13.6193 17.5232L15.7578 15.3462C15.9206 15.1705 16.1036 15.0548 16.3068 14.9992C16.5099 14.9433 16.7346 14.9321 16.9808 14.9654L19.0845 15.3962C19.3563 15.4628 19.5769 15.5997 19.7462 15.8069C19.9154 16.0139 20 16.2514 20 16.5194V18.9539C20 19.2539 19.8982 19.5039 19.6945 19.7039C19.4908 19.9039 19.2362 20.0039 18.9307 20.0039ZM6.12125 9.65766L8.0405 7.89241C8.1045 7.84107 8.14617 7.77057 8.1655 7.68091C8.18467 7.59107 8.18142 7.50774 8.15575 7.43091L7.7115 5.31166C7.68583 5.20899 7.641 5.13207 7.577 5.08091C7.51283 5.02957 7.4295 5.00391 7.327 5.00391H5.275C5.198 5.00391 5.13392 5.02957 5.08275 5.08091C5.03142 5.13207 5.00575 5.19616 5.00575 5.27316C5.02492 5.95649 5.132 6.66991 5.327 7.41341C5.52183 8.15707 5.78658 8.90516 6.12125 9.65766ZM14.5712 17.9924C15.2467 18.3271 15.9669 18.5745 16.7318 18.7347C17.4964 18.895 18.1628 18.9809 18.7308 18.9924C18.8077 18.9924 18.8718 18.9667 18.923 18.9154C18.9743 18.8641 19 18.8 19 18.7232V16.7154C19 16.6129 18.9743 16.5296 18.923 16.4654C18.8718 16.4014 18.7949 16.3566 18.6923 16.3309L16.8422 15.9519C16.7654 15.9262 16.6982 15.9231 16.6405 15.9424C16.5827 15.9616 16.5218 16.0032 16.4578 16.0674L14.5712 17.9924Z" fill="#FFF9E3"/>
</g>
</svg>
