<svg width="80" height="81" viewBox="0 0 80 81" fill="none" xmlns="http://www.w3.org/2000/svg">
<mask id="mask0_697_1997" style="mask-type:alpha" maskUnits="userSpaceOnUse" x="0" y="0" width="80" height="81">
<rect y="0.128906" width="80" height="80" fill="#D9D9D9"/>
</mask>
<g mask="url(#mask0_697_1997)">
<path d="M39.9993 66.4114C38.7688 66.4114 37.7091 66.0533 36.8202 65.3372C35.9313 64.6217 35.4099 63.702 35.256 62.5781H33.3327C32.4393 62.5781 31.6605 62.2456 30.996 61.5806C30.3316 60.9161 29.9993 60.1372 29.9993 59.2439V49.2056C26.5505 47.2956 23.8827 44.6908 21.996 41.3914C20.1093 38.0925 19.166 34.6161 19.166 30.9622C19.166 25.1372 21.1821 20.2089 25.2143 16.1772C29.246 12.145 34.1743 10.1289 39.9993 10.1289C45.8244 10.1289 50.7527 12.145 54.7844 16.1772C58.8166 20.2089 60.8327 25.1372 60.8327 30.9622C60.8327 34.6417 59.8894 38.1245 58.0027 41.4106C56.116 44.6972 53.4482 47.2956 49.9993 49.2056V59.2439C49.9993 60.1372 49.6671 60.9161 49.0027 61.5806C48.3382 62.2456 47.5594 62.5781 46.666 62.5781H44.7427C44.5888 63.702 44.0674 64.6217 43.1785 65.3372C42.2896 66.0533 41.2299 66.4114 39.9993 66.4114ZM33.3327 59.2439H46.666V55.9881H33.3327V59.2439ZM33.3327 53.4239H46.666V50.1289H33.3327V53.4239ZM32.666 46.7956H38.5252V36.3856L31.576 29.4364L33.666 27.3472L39.9993 33.6806L46.3327 27.3472L48.4227 29.4364L41.4735 36.3856V46.7956H47.3327C50.3327 45.3511 52.7771 43.2261 54.666 40.4206C56.5549 37.615 57.4994 34.4622 57.4994 30.9622C57.4994 26.0733 55.8049 21.9345 52.416 18.5456C49.0271 15.1567 44.8882 13.4622 39.9993 13.4622C35.1105 13.4622 30.9716 15.1567 27.5827 18.5456C24.1938 21.9345 22.4993 26.0733 22.4993 30.9622C22.4993 34.4622 23.4438 37.615 25.3327 40.4206C27.2216 43.2261 29.666 45.3511 32.666 46.7956Z" fill="#FFF9E3"/>
</g>
</svg>
