<svg width="336" height="623" viewBox="0 0 336 623" fill="none" xmlns="http://www.w3.org/2000/svg">
<g opacity="0.1">
<path d="M307.003 311.6C285.236 290.155 254.5 276.814 220.535 276.814C186.57 276.814 155.834 290.155 134.067 311.6C155.834 333.046 186.57 346.387 220.535 346.387C254.5 346.387 285.236 333.046 307.003 311.6Z" fill="#FFF9E3"/>
<path d="M153.027 458.478C138.676 461.349 123.786 462.812 108.537 462.812C83.482 462.812 59.4433 458.759 37.1387 451.329C39.7698 479.586 64.9447 501.764 95.6808 501.764C123.726 501.764 147.227 483.245 153.027 458.478Z" fill="#FFF9E3"/>
<path d="M97.5902 332.79C87.2451 324.235 73.671 319 58.7813 319C26.3111 319 -2.85763e-06 343.767 -1.42618e-06 374.331C-1.02811e-06 382.831 2.03313 390.824 5.6808 398.029C6.87676 400.393 8.19231 402.588 9.74706 404.783C10.345 403.77 10.8832 402.757 11.4812 401.744C30.4969 370.166 60.9341 345.512 97.5902 332.79Z" fill="#FFF9E3"/>
<path d="M178.973 478.337C150.33 481.996 128.205 505.131 128.205 533.162C128.205 563.558 154.217 588.212 186.448 588.437C178.495 567.329 174.13 544.645 174.13 520.948C174.13 506.313 175.804 492.016 178.973 478.281L178.973 478.337Z" fill="#FFF9E3"/>
<path d="M322.97 567.659C322.97 553.755 317.528 541.034 308.499 531.353C295.343 564.844 270.288 592.876 238.057 610.832C236.084 611.957 234.11 612.971 232.077 613.984C235.964 616.348 240.15 618.318 244.575 619.781C250.674 621.864 257.312 622.934 264.189 622.934C296.659 622.934 322.97 598.167 322.97 567.602L322.97 567.659Z" fill="#FFF9E3"/>
<path d="M230.461 383.386C209.352 368.3 183.041 359.35 154.458 359.35C141.302 359.35 128.625 361.264 116.665 364.754C89.2182 372.86 65.8372 389.577 50.0506 411.586C50.0506 411.586 50.0506 411.642 49.9908 411.699C48.4958 413.781 47.0607 415.92 45.7451 418.059C56.2695 421.83 67.2724 424.645 78.634 426.39C88.3212 427.966 98.3673 428.754 108.533 428.754C122.645 428.754 136.339 427.234 149.494 424.307C180.35 417.44 208.096 403.086 230.401 383.329L230.461 383.386Z" fill="#FFF9E3"/>
<path d="M256.465 408.363C236.194 429.471 221.484 455.476 214.667 484.296C211.856 496.116 210.421 508.387 210.421 520.939C210.421 528.257 210.899 535.462 211.856 542.498C213.53 554.881 216.7 566.814 221.065 578.241C221.065 578.241 221.065 578.297 221.065 578.354C246.3 563.493 265.555 540.472 274.584 513.228C278.291 502.027 280.325 490.15 280.325 477.823C280.325 451.874 271.475 427.895 256.465 408.363Z" fill="#FFF9E3"/>
<path d="M299.199 203.539C299.199 208.098 299.498 212.545 300.036 216.992C301.651 230.051 305.657 242.378 311.637 253.635C317.856 265.4 326.168 275.982 336.154 284.932C346.141 275.982 354.452 265.4 360.671 253.635C366.651 242.378 370.658 229.994 372.272 216.992C372.81 212.601 373.109 208.098 373.109 203.539C373.109 171.567 358.937 142.635 336.154 122.146C313.371 142.635 299.199 171.567 299.199 203.539Z" fill="#FFF9E3"/>
<path d="M153.027 164.756C147.227 139.989 123.726 121.47 95.6808 121.47C64.9447 121.47 39.7698 143.648 37.1387 171.904C59.4433 164.474 83.482 160.421 108.537 160.421C123.786 160.421 138.676 161.941 153.027 164.756Z" fill="#FFF9E3"/>
<path d="M11.4812 221.496C10.8832 220.483 10.2852 219.47 9.74705 218.457C8.25211 220.596 6.87676 222.847 5.6808 225.211C2.03313 232.416 -2.9868e-06 240.466 -2.59137e-06 248.909C-1.15992e-06 279.473 26.3111 304.24 58.7813 304.24C73.671 304.24 87.2451 299.062 97.5902 290.45C60.9939 277.728 30.4969 253.074 11.4812 221.496Z" fill="#FFF9E3"/>
<path d="M178.973 144.943C175.804 131.209 174.13 116.968 174.13 102.277C174.13 78.6357 178.495 55.8953 186.448 34.7872C154.217 35.0686 128.205 59.7229 128.205 90.0623C128.205 118.038 150.271 141.172 178.973 144.887L178.973 144.943Z" fill="#FFF9E3"/>
<path d="M308.499 91.918C317.528 82.1801 322.97 69.4589 322.97 55.612C322.97 25.0475 296.659 0.280591 264.189 0.280593C257.312 0.280593 250.734 1.40635 244.575 3.43272C240.15 4.89622 235.964 6.8663 232.077 9.23042C234.11 10.2436 236.084 11.3131 238.057 12.3825C270.288 30.3385 295.343 58.4264 308.499 91.8617L308.499 91.918Z" fill="#FFF9E3"/>
<path d="M116.664 258.53C128.624 262.02 141.301 263.934 154.456 263.934C183.04 263.934 209.351 254.984 230.46 239.898C208.095 220.141 180.349 205.788 149.553 198.921C136.398 195.994 122.704 194.474 108.591 194.474C98.3661 194.474 88.3798 195.318 78.6925 196.838C67.3309 198.583 56.3281 201.454 45.8037 205.169C47.1193 207.364 48.5544 209.447 50.0494 211.529C50.0494 211.529 50.0494 211.585 50.1092 211.642C65.8958 233.594 89.2768 250.312 116.724 258.474L116.664 258.53Z" fill="#FFF9E3"/>
<path d="M221.065 44.855C221.065 44.855 221.065 44.9113 221.065 44.9676C216.7 56.3378 213.53 68.2709 211.856 80.7106C210.899 87.7467 210.421 94.9516 210.421 102.269C210.421 114.878 211.916 127.149 214.667 138.913C221.484 167.732 236.194 193.738 256.465 214.846C271.475 195.314 280.325 171.335 280.325 145.386C280.325 133.059 278.351 121.126 274.584 109.981C265.555 82.7371 246.3 59.7151 221.065 44.855Z" fill="#FFF9E3"/>
<path d="M360.671 369.598C354.452 357.834 346.141 347.252 336.154 338.302C326.168 347.252 317.856 357.834 311.637 369.598C305.657 380.856 301.651 393.239 300.036 406.242C299.498 410.633 299.199 415.136 299.199 419.695C299.199 451.667 313.371 480.599 336.154 501.088C358.937 480.599 373.109 451.667 373.109 419.695C373.109 415.136 372.81 410.689 372.272 406.242C370.658 393.183 366.651 380.856 360.671 369.598Z" fill="#FFF9E3"/>
</g>
</svg>
