<svg width="33" height="33" viewBox="0 0 33 33" fill="none" xmlns="http://www.w3.org/2000/svg">
<mask id="mask0_786_7" style="mask-type:alpha" maskUnits="userSpaceOnUse" x="0" y="0" width="33" height="33">
<rect x="0.5" y="0.628906" width="32" height="32" fill="#D9D9D9"/>
</mask>
<g mask="url(#mask0_786_7)">
<path d="M13.8333 21.3982L21.2693 16.6289L13.8333 11.8596V21.3982ZM16.5043 28.6289C14.845 28.6289 13.2849 28.314 11.824 27.6842C10.3633 27.0545 9.09267 26.1998 8.012 25.1202C6.93133 24.0407 6.07589 22.7711 5.44567 21.3116C4.81522 19.8522 4.5 18.2928 4.5 16.6332C4.5 14.9739 4.81489 13.4138 5.44467 11.9529C6.07444 10.4922 6.92911 9.22157 8.00867 8.14091C9.08822 7.06024 10.3578 6.2048 11.8173 5.57457C13.2767 4.94413 14.8361 4.62891 16.4957 4.62891C18.155 4.62891 19.7151 4.9438 21.176 5.57357C22.6367 6.20335 23.9073 7.05802 24.988 8.13757C26.0687 9.21713 26.9241 10.4867 27.5543 11.9462C28.1848 13.4056 28.5 14.965 28.5 16.6246C28.5 18.2839 28.1851 19.844 27.5553 21.3049C26.9256 22.7656 26.0709 24.0362 24.9913 25.1169C23.9118 26.1976 22.6422 27.053 21.1827 27.6832C19.7233 28.3137 18.1639 28.6289 16.5043 28.6289ZM16.5 27.2956C19.4778 27.2956 22 26.2622 24.0667 24.1956C26.1333 22.1289 27.1667 19.6067 27.1667 16.6289C27.1667 13.6511 26.1333 11.1289 24.0667 9.06224C22 6.99557 19.4778 5.96224 16.5 5.96224C13.5222 5.96224 11 6.99557 8.93333 9.06224C6.86667 11.1289 5.83333 13.6511 5.83333 16.6289C5.83333 19.6067 6.86667 22.1289 8.93333 24.1956C11 26.2622 13.5222 27.2956 16.5 27.2956Z" fill="#FFF9E3"/>
</g>
</svg>
