<svg width="80" height="80" viewBox="0 0 80 80" fill="none" xmlns="http://www.w3.org/2000/svg">
<mask id="mask0_467_488" style="mask-type:alpha" maskUnits="userSpaceOnUse" x="0" y="0" width="80" height="80">
<rect width="80" height="80" fill="#D9D9D9"/>
</mask>
<g mask="url(#mask0_467_488)">
<path d="M16.6667 50.385V20C16.6667 17.825 17.2917 16.0761 18.5417 14.7533C19.7917 13.4306 21.4851 12.4178 23.6217 11.715C25.7584 11.0117 28.2423 10.55 31.0734 10.33C33.9051 10.11 36.8806 10 40.0001 10C43.2395 10 46.2706 10.11 49.0934 10.33C51.9156 10.55 54.3856 11.0117 56.5034 11.715C58.6206 12.4178 60.2884 13.4306 61.5068 14.7533C62.7245 16.0761 63.3334 17.825 63.3334 20V50.385C63.3334 53.0644 62.4006 55.3367 60.5351 57.2017C58.6701 59.0672 56.3979 60 53.7184 60L58.7184 65V66.6667H55.8976L49.2309 60H30.7693L24.1026 66.6667H21.2817V65L26.2817 60C23.6023 60 21.3301 59.0672 19.4651 57.2017C17.5995 55.3367 16.6667 53.0644 16.6667 50.385ZM40.0001 13.3333C33.4701 13.3333 28.7159 13.7661 25.7376 14.6317C22.7587 15.4967 20.9615 16.7733 20.3459 18.4617H59.7309C59.1537 16.7478 57.3726 15.4647 54.3876 14.6125C51.4026 13.7597 46.6067 13.3333 40.0001 13.3333ZM20.0001 36.6667H38.3334V21.795H20.0001V36.6667ZM41.6667 36.6667H60.0001V21.795H41.6667V36.6667ZM28.3334 52.0517C29.3934 52.0517 30.2781 51.6969 30.9876 50.9875C31.697 50.2781 32.0517 49.3933 32.0517 48.3333C32.0517 47.2733 31.697 46.3886 30.9876 45.6792C30.2781 44.9697 29.3934 44.615 28.3334 44.615C27.2734 44.615 26.3887 44.9697 25.6792 45.6792C24.9698 46.3886 24.6151 47.2733 24.6151 48.3333C24.6151 49.3933 24.9698 50.2781 25.6792 50.9875C26.3887 51.6969 27.2734 52.0517 28.3334 52.0517ZM51.6667 52.0517C52.7267 52.0517 53.6115 51.6969 54.3209 50.9875C55.0304 50.2781 55.3851 49.3933 55.3851 48.3333C55.3851 47.2733 55.0304 46.3886 54.3209 45.6792C53.6115 44.9697 52.7267 44.615 51.6667 44.615C50.6068 44.615 49.722 44.9697 49.0126 45.6792C48.3031 46.3886 47.9484 47.2733 47.9484 48.3333C47.9484 49.3933 48.3031 50.2781 49.0126 50.9875C49.722 51.6969 50.6068 52.0517 51.6667 52.0517ZM26.2817 56.6667H53.7184C55.4618 56.6667 56.9445 56.0556 58.1667 54.8333C59.389 53.6111 60.0001 52.1283 60.0001 50.385V40H20.0001V50.385C20.0001 52.1283 20.6112 53.6111 21.8334 54.8333C23.0556 56.0556 24.5384 56.6667 26.2817 56.6667Z" fill="#1C1B1F"/>
</g>
</svg>
