<svg width="80" height="80" viewBox="0 0 80 80" fill="none" xmlns="http://www.w3.org/2000/svg">
<mask id="mask0_467_505" style="mask-type:alpha" maskUnits="userSpaceOnUse" x="0" y="0" width="80" height="80">
<rect width="80" height="80" fill="#D9D9D9"/>
</mask>
<g mask="url(#mask0_467_505)">
<path d="M33.3334 65.7513L26.7501 53.2513L14.1667 46.5846L17.0834 43.668L28.4167 45.5846L39.0834 34.918L14.5001 24.418L18.4167 20.5846L48.3334 25.668L58.7501 15.168C59.5834 14.3346 60.5973 13.918 61.7917 13.918C62.9862 13.918 64.0001 14.3346 64.8334 15.168C65.6667 16.0013 66.0834 17.0152 66.0834 18.2096C66.0834 19.4041 65.6667 20.418 64.8334 21.2513L54.3334 31.668L59.4167 61.5846L55.5001 65.5013L45.0834 40.918L34.4167 51.5846L36.2501 62.8346L33.3334 65.7513Z" fill="#1C1B1F"/>
</g>
</svg>
