<svg
      width="78"
      height="72"
      viewBox="0 0 78 72"
      fill="none"
      xmlns="http://www.w3.org/2000/svg"
    >
      <path
        d="M35.496 35.9956C32.9793 33.516 29.4256 31.9735 25.4985 31.9735C21.5714 31.9735 18.0176 33.516 15.501 35.9956C18.0176 38.4751 21.5714 40.0176 25.4985 40.0176C29.4256 40.0176 32.9793 38.4751 35.496 35.9956Z"
        fill="white"
      />
      <path
        d="M17.6931 52.9777C16.0338 53.3096 14.3122 53.4788 12.5491 53.4788C9.65222 53.4788 6.87283 53.0102 4.29395 52.1511C4.59816 55.4182 7.50891 57.9824 11.0627 57.9824C14.3053 57.9824 17.0224 55.8412 17.6931 52.9777Z"
        fill="white"
      />
      <path
        d="M11.2835 38.4456C10.0874 37.4564 8.51793 36.8511 6.79637 36.8511C3.04212 36.8511 -3.30402e-07 39.7147 -1.64896e-07 43.2486C-1.18872e-07 44.2314 0.235073 45.1555 0.656821 45.9886C0.795099 46.2619 0.947205 46.5157 1.12697 46.7695C1.19611 46.6524 1.25833 46.5352 1.32747 46.4181C3.52609 42.767 7.04527 39.9165 11.2835 38.4456Z"
        fill="white"
      />
      <path
        d="M20.6931 55.274C17.3814 55.697 14.8232 58.3719 14.8232 61.6129C14.8232 65.1273 17.8308 67.9779 21.5574 68.0039C20.6378 65.5634 20.1331 62.9406 20.1331 60.2007C20.1331 58.5086 20.3267 56.8555 20.6931 55.2675L20.6931 55.274Z"
        fill="white"
      />
      <path
        d="M37.3421 65.6012C37.3421 63.9937 36.713 62.5229 35.669 61.4035C34.1479 65.2758 31.251 68.5169 27.5244 70.5929C27.2962 70.7231 27.0681 70.8403 26.833 70.9574C27.2824 71.2307 27.7664 71.4585 28.278 71.6277C28.9832 71.8685 29.7507 71.9922 30.5458 71.9922C34.3 71.9922 37.3421 69.1286 37.3421 65.5947L37.3421 65.6012Z"
        fill="white"
      />
      <path
        d="M26.6461 44.2955C24.2055 42.5513 21.1634 41.5165 17.8585 41.5165C16.3375 41.5165 14.8717 41.7378 13.489 42.1413C10.3155 43.0785 7.61213 45.0114 5.78686 47.556C5.78686 47.556 5.78686 47.5625 5.77995 47.5691C5.6071 47.8099 5.44117 48.0572 5.28906 48.3045C6.50591 48.7405 7.77807 49.0659 9.09171 49.2677C10.2118 49.4499 11.3733 49.541 12.5487 49.541C14.1803 49.541 15.7636 49.3653 17.2847 49.0269C20.8523 48.2329 24.0603 46.5733 26.6392 44.289L26.6461 44.2955Z"
        fill="white"
      />
      <path
        d="M29.6528 47.1834C27.309 49.6239 25.6082 52.6307 24.82 55.9628C24.495 57.3295 24.3291 58.7483 24.3291 60.1996C24.3291 61.0457 24.3844 61.8787 24.495 62.6922C24.6886 64.124 25.0551 65.5037 25.5598 66.8249C25.5598 66.8249 25.5598 66.8314 25.5598 66.8379C28.4774 65.1197 30.7037 62.4579 31.7477 59.308C32.1764 58.0129 32.4115 56.6397 32.4115 55.2144C32.4115 52.2141 31.3882 49.4417 29.6528 47.1834Z"
        fill="white"
      />
      <path
        d="M34.5937 23.5014C34.5937 24.0285 34.6283 24.5427 34.6905 25.0568C34.8772 26.5667 35.3405 27.992 36.0318 29.2936C36.7509 30.6538 37.7119 31.8773 38.8665 32.9121C40.0212 31.8773 40.9822 30.6538 41.7012 29.2936C42.3926 27.992 42.8559 26.5602 43.0425 25.0568C43.1048 24.5492 43.1393 24.0285 43.1393 23.5014C43.1393 19.8048 41.5007 16.4596 38.8665 14.0906C36.2323 16.4596 34.5937 19.8048 34.5937 23.5014Z"
        fill="white"
      />
      <path
        d="M17.6931 19.0172C17.0224 16.1536 14.3053 14.0125 11.0627 14.0125C7.50891 14.0125 4.59816 16.5767 4.29395 19.8438C6.87283 18.9847 9.65222 18.5161 12.5491 18.5161C14.3122 18.5161 16.0338 18.6918 17.6931 19.0172Z"
        fill="white"
      />
      <path
        d="M1.32747 25.5776C1.25833 25.4604 1.18919 25.3433 1.12697 25.2261C0.954119 25.4735 0.795099 25.7338 0.656821 26.0071C0.235072 26.8402 -3.45337e-07 27.7708 -2.99617e-07 28.747C-1.34112e-07 32.281 3.04212 35.1445 6.79637 35.1445C8.51793 35.1445 10.0874 34.5458 11.2835 33.55C7.05218 32.0792 3.52609 29.2287 1.32747 25.5776Z"
        fill="white"
      />
      <path
        d="M20.6931 16.7266C20.3267 15.1386 20.1331 13.492 20.1331 11.7934C20.1331 9.05999 20.6378 6.43072 21.5574 3.99017C17.8308 4.02271 14.8232 6.87327 14.8232 10.3811C14.8232 13.6157 17.3745 16.2905 20.6931 16.7201L20.6931 16.7266Z"
        fill="white"
      />
      <path
        d="M35.669 10.5957C36.713 9.4698 37.3421 7.99896 37.3421 6.39797C37.3421 2.86405 34.3 0.000479394 30.5458 0.000479547C29.7507 0.000479579 28.9901 0.13064 28.278 0.364932C27.7664 0.534143 27.2824 0.761928 26.833 1.03527C27.0681 1.15241 27.2962 1.27607 27.5244 1.39972C31.251 3.47581 34.1479 6.72337 35.669 10.5892L35.669 10.5957Z"
        fill="white"
      />
      <path
        d="M13.4889 29.8596C14.8717 30.2631 16.3374 30.4844 17.8585 30.4844C21.1633 30.4844 24.2054 29.4496 26.646 27.7054C24.0602 25.4211 20.8522 23.7615 17.2915 22.9675C15.7705 22.6291 14.1872 22.4534 12.5555 22.4534C11.3732 22.4534 10.2186 22.551 9.09855 22.7267C7.7849 22.9284 6.51275 23.2604 5.2959 23.6899C5.448 23.9437 5.61394 24.1845 5.78679 24.4253C5.78679 24.4253 5.78679 24.4318 5.7937 24.4383C7.61897 26.9765 10.3223 28.9094 13.4958 29.8531L13.4889 29.8596Z"
        fill="white"
      />
      <path
        d="M25.5598 5.15406C25.5598 5.15406 25.5598 5.16057 25.5598 5.16708C25.0551 6.48172 24.6886 7.86144 24.495 9.29974C24.3844 10.1132 24.3291 10.9463 24.3291 11.7923C24.3291 13.2502 24.502 14.6689 24.82 16.0291C25.6082 19.3613 27.309 22.368 29.6528 24.8086C31.3882 22.5503 32.4115 19.7778 32.4115 16.7776C32.4115 15.3523 32.1833 13.9726 31.7477 12.684C30.7037 9.53403 28.4774 6.87221 25.5598 5.15406Z"
        fill="white"
      />
      <path
        d="M41.7012 42.7013C40.9822 41.3411 40.0212 40.1176 38.8665 39.0828C37.7119 40.1176 36.7509 41.3411 36.0318 42.7013C35.3405 44.0029 34.8772 45.4347 34.6905 46.9381C34.6283 47.4457 34.5937 47.9664 34.5937 48.4935C34.5937 52.1902 36.2323 55.5353 38.8665 57.9043C41.5007 55.5353 43.1393 52.1902 43.1393 48.4935C43.1393 47.9664 43.1048 47.4522 43.0425 46.9381C42.8559 45.4282 42.3926 44.0029 41.7012 42.7013Z"
        fill="white"
      />
      <path
        d="M60.0293 52.9777C60.6999 55.8412 63.4171 57.9824 66.6597 57.9824C70.2135 57.9824 73.1242 55.4182 73.4284 52.1511C70.8496 53.0102 68.0702 53.4788 65.1732 53.4788C63.4102 53.4788 61.6886 53.3031 60.0293 52.9777Z"
        fill="white"
      />
      <path
        d="M76.3935 46.4181C76.4627 46.5352 76.5318 46.6524 76.594 46.7695C76.7669 46.5222 76.9259 46.2619 77.0642 45.9886C77.4859 45.1555 77.721 44.2249 77.721 43.2486C77.721 39.7147 74.6789 36.8511 70.9246 36.8511C69.2031 36.8511 67.6336 37.4499 66.4375 38.4456C70.6688 39.9165 74.1949 42.767 76.3935 46.4181Z"
        fill="white"
      />
      <path
        d="M57.0283 55.2734C57.3947 56.8613 57.5883 58.5079 57.5883 60.2065C57.5883 62.9399 57.0836 65.5692 56.1641 68.0098C59.8907 67.9772 62.8982 65.1267 62.8982 61.6188C62.8982 58.3842 60.347 55.7094 57.0283 55.2799L57.0283 55.2734Z"
        fill="white"
      />
      <path
        d="M42.053 61.4048C41.009 62.5307 40.3799 64.0015 40.3799 65.6025C40.3799 69.1364 43.422 72 47.1763 72C47.9714 72 48.7319 71.8698 49.444 71.6355C49.9556 71.4663 50.4396 71.2385 50.889 70.9652C50.6539 70.8481 50.4258 70.7244 50.1976 70.6007C46.471 68.5247 43.5741 65.2771 42.053 61.4113L42.053 61.4048Z"
        fill="white"
      />
      <path
        d="M64.2324 42.1406C62.8496 41.7371 61.3838 41.5158 59.8628 41.5158C56.5579 41.5158 53.5158 42.5506 51.0752 44.2948C53.661 46.5792 56.869 48.2387 60.4297 49.0327C61.9508 49.3711 63.534 49.5469 65.1657 49.5469C66.348 49.5469 67.5026 49.4492 68.6227 49.2735C69.9363 49.0718 71.2085 48.7399 72.4253 48.3103C72.2732 48.0565 72.1073 47.8157 71.9344 47.5749C71.9344 47.5749 71.9344 47.5684 71.9275 47.5619C70.1023 45.0237 67.3989 43.0908 64.2254 42.1471L64.2324 42.1406Z"
        fill="white"
      />
      <path
        d="M52.1613 66.8379C52.1613 66.8379 52.1613 66.8314 52.1613 66.8249C52.666 65.5102 53.0324 64.1305 53.226 62.6922C53.3366 61.8787 53.3919 61.0457 53.3919 60.1996C53.3919 58.7418 53.2191 57.323 52.901 55.9628C52.1129 52.6307 50.412 49.6239 48.0682 47.1834C46.3328 49.4417 45.3096 52.2141 45.3096 55.2144C45.3096 56.6397 45.5377 58.0194 45.9733 59.308C47.0173 62.4579 49.2436 65.1197 52.1613 66.8379Z"
        fill="white"
      />
      <path
        d="M42.2256 35.9975C44.7422 38.4771 48.296 40.0195 52.2231 40.0195C56.1502 40.0195 59.7039 38.4771 62.2206 35.9975C59.7039 33.5179 56.1502 31.9755 52.2231 31.9755C48.296 31.9755 44.7422 33.5179 42.2256 35.9975Z"
        fill="white"
      />
      <path
        d="M60.0293 19.0172C61.6886 18.6853 63.4102 18.5161 65.1732 18.5161C68.0702 18.5161 70.8496 18.9847 73.4284 19.8437C73.1242 16.5767 70.2135 14.0125 66.6597 14.0125C63.4171 14.0125 60.6999 16.1536 60.0293 19.0172Z"
        fill="white"
      />
      <path
        d="M66.4453 33.5559C67.6414 34.5451 69.2109 35.1504 70.9324 35.1504C74.6867 35.1504 77.7288 32.2868 77.7288 28.7529C77.7288 27.7702 77.4937 26.846 77.072 26.013C76.9337 25.7397 76.7816 25.4858 76.6018 25.232C76.5327 25.3492 76.4705 25.4663 76.4013 25.5835C74.2027 29.2345 70.6835 32.0851 66.4453 33.5559Z"
        fill="white"
      />
      <path
        d="M57.0293 16.7279C60.341 16.3048 62.8992 13.63 62.8992 10.389C62.8992 6.87457 59.8916 4.02402 56.165 3.99798C57.0846 6.43853 57.5893 9.06131 57.5893 11.8012C57.5893 13.4933 57.3957 15.1464 57.0293 16.7344L57.0293 16.7279Z"
        fill="white"
      />
      <path
        d="M40.3799 6.3921C40.3799 7.9996 41.009 9.47045 42.053 10.5898C43.5741 6.71751 46.471 3.47646 50.1976 1.40037C50.4258 1.27021 50.6539 1.15306 50.889 1.03591C50.4396 0.762573 49.9556 0.53479 49.444 0.365578C48.7388 0.124777 47.9714 0.00112503 47.1763 0.00112506C43.422 0.00112521 40.3799 2.8647 40.3799 6.39861L40.3799 6.3921Z"
        fill="white"
      />
      <path
        d="M51.083 27.7074C53.5236 29.4515 56.5657 30.4863 59.8706 30.4863C61.3916 30.4863 62.8574 30.2651 64.2402 29.8616C67.4137 28.9244 70.117 26.9915 71.9423 24.4468C71.9423 24.4468 71.9423 24.4403 71.9492 24.4338C72.122 24.193 72.288 23.9457 72.4401 23.6984C71.2232 23.2623 69.9511 22.9369 68.6374 22.7352C67.5174 22.5529 66.3558 22.4618 65.1805 22.4618C63.5488 22.4618 61.9655 22.6375 60.4444 22.976C56.8769 23.7699 53.6688 25.4295 51.0899 27.7139L51.083 27.7074Z"
        fill="white"
      />
      <path
        d="M53.3988 11.7943C53.3988 10.9482 53.3434 10.1152 53.2328 9.30169C53.0392 7.8699 52.6728 6.49018 52.1681 5.16903C52.1681 5.16903 52.1681 5.16252 52.1681 5.15602C49.2504 6.87416 47.0241 9.53599 45.9801 12.6859C45.5515 13.981 45.3164 15.3542 45.3164 16.7795C45.3164 19.7798 46.3397 22.5522 48.0751 24.8105C50.4189 22.37 52.1197 19.3633 52.9079 16.0311C53.2328 14.6644 53.3988 13.2456 53.3988 11.7943Z"
        fill="white"
      />
    </svg>