<svg width="78" height="72" viewBox="0 0 78 72" fill="none" xmlns="http://www.w3.org/2000/svg">
<path d="M35.495 35.9936C32.9784 33.514 29.4246 31.9716 25.4975 31.9716C21.5704 31.9716 18.0167 33.514 15.5 35.9936C18.0167 38.4732 21.5704 40.0156 25.4975 40.0156C29.4246 40.0156 32.9784 38.4732 35.495 35.9936Z" fill="white"/>
<path d="M17.6921 52.9757C16.0328 53.3076 14.3112 53.4768 12.5482 53.4768C9.65124 53.4768 6.87186 53.0083 4.29297 52.1492C4.59718 55.4163 7.50793 57.9805 11.0617 57.9805C14.3043 57.9805 17.0215 55.8393 17.6921 52.9757Z" fill="white"/>
<path d="M11.2835 38.4456C10.0874 37.4564 8.51793 36.8511 6.79637 36.8511C3.04212 36.8511 -3.30402e-07 39.7147 -1.64896e-07 43.2486C-1.18872e-07 44.2314 0.235073 45.1555 0.656821 45.9886C0.795099 46.2619 0.947205 46.5157 1.12697 46.7695C1.19611 46.6524 1.25833 46.5352 1.32747 46.4181C3.52609 42.767 7.04527 39.9165 11.2835 38.4456Z" fill="white"/>
<path d="M20.6902 55.274C17.3785 55.697 14.8203 58.3719 14.8203 61.6129C14.8203 65.1273 17.8279 67.9779 21.5545 68.0039C20.6349 65.5634 20.1302 62.9406 20.1302 60.2007C20.1302 58.5086 20.3238 56.8555 20.6902 55.2675L20.6902 55.274Z" fill="white"/>
<path d="M37.3412 65.6012C37.3412 63.9937 36.712 62.5229 35.668 61.4035C34.1469 65.2758 31.25 68.5169 27.5234 70.5929C27.2953 70.7231 27.0671 70.8403 26.832 70.9574C27.2814 71.2307 27.7654 71.4585 28.277 71.6277C28.9823 71.8685 29.7497 71.9922 30.5448 71.9922C34.299 71.9922 37.3412 69.1286 37.3412 65.5947L37.3412 65.6012Z" fill="white"/>
<path d="M26.6461 44.2935C24.2055 42.5493 21.1634 41.5145 17.8585 41.5145C16.3375 41.5145 14.8717 41.7358 13.489 42.1393C10.3155 43.0765 7.61213 45.0094 5.78686 47.5541C5.78686 47.5541 5.78686 47.5606 5.77995 47.5671C5.6071 47.8079 5.44117 48.0552 5.28906 48.3025C6.50591 48.7386 7.77807 49.064 9.09171 49.2657C10.2118 49.4479 11.3733 49.5391 12.5487 49.5391C14.1803 49.5391 15.7636 49.3633 17.2847 49.0249C20.8523 48.2309 24.0603 46.5714 26.6392 44.287L26.6461 44.2935Z" fill="white"/>
<path d="M29.6518 47.1814C27.308 49.622 25.6072 52.6287 24.819 55.9609C24.4941 57.3276 24.3281 58.7463 24.3281 60.1977C24.3281 61.0437 24.3834 61.8768 24.4941 62.6903C24.6876 64.1221 25.0541 65.5018 25.5588 66.8229C25.5588 66.8229 25.5588 66.8294 25.5588 66.8359C28.4765 65.1178 30.7027 62.456 31.7467 59.306C32.1754 58.0109 32.4105 56.6377 32.4105 55.2124C32.4105 52.2122 31.3872 49.4397 29.6518 47.1814Z" fill="white"/>
<path d="M34.5937 23.4994C34.5937 24.0266 34.6283 24.5407 34.6905 25.0549C34.8772 26.5647 35.3405 27.99 36.0318 29.2916C36.7509 30.6518 37.7119 31.8754 38.8665 32.9102C40.0212 31.8754 40.9822 30.6518 41.7012 29.2916C42.3926 27.99 42.8559 26.5582 43.0425 25.0549C43.1048 24.5472 43.1393 24.0266 43.1393 23.4994C43.1393 19.8028 41.5007 16.4576 38.8665 14.0887C36.2323 16.4576 34.5937 19.8028 34.5937 23.4994Z" fill="white"/>
<path d="M17.696 19.0172C17.0254 16.1536 14.3082 14.0125 11.0656 14.0125C7.51184 14.0125 4.60109 16.5767 4.29688 19.8438C6.87576 18.9847 9.65515 18.5161 12.5521 18.5161C14.3151 18.5161 16.0367 18.6918 17.696 19.0172Z" fill="white"/>
<path d="M1.32747 25.5776C1.25833 25.4604 1.18919 25.3433 1.12697 25.2261C0.954119 25.4735 0.795099 25.7338 0.656821 26.0071C0.235072 26.8402 -3.45337e-07 27.7708 -2.99617e-07 28.747C-1.34112e-07 32.281 3.04212 35.1445 6.79637 35.1445C8.51793 35.1445 10.0874 34.5458 11.2835 33.55C7.05218 32.0792 3.52609 29.2287 1.32747 25.5776Z" fill="white"/>
<path d="M20.6941 16.7266C20.3277 15.1386 20.1341 13.492 20.1341 11.7934C20.1341 9.05999 20.6388 6.43072 21.5584 3.99017C17.8318 4.02271 14.8242 6.87327 14.8242 10.3811C14.8242 13.6157 17.3754 16.2905 20.6941 16.7201L20.6941 16.7266Z" fill="white"/>
<path d="M35.668 10.5937C36.712 9.46784 37.3412 7.99701 37.3412 6.39601C37.3412 2.8621 34.299 -0.00147373 30.5448 -0.00147358C29.7497 -0.00147355 28.9892 0.128687 28.277 0.362979C27.7654 0.53219 27.2814 0.759974 26.832 1.03332C27.0671 1.15046 27.2953 1.27411 27.5234 1.39777C31.25 3.47386 34.1469 6.72142 35.668 10.5872L35.668 10.5937Z" fill="white"/>
<path d="M13.4899 29.8596C14.8726 30.2631 16.3384 30.4844 17.8594 30.4844C21.1643 30.4844 24.2064 29.4496 26.647 27.7054C24.0612 25.4211 20.8532 23.7615 17.2925 22.9675C15.7714 22.6291 14.1882 22.4534 12.5565 22.4534C11.3742 22.4534 10.2196 22.551 9.09952 22.7267C7.78588 22.9284 6.51372 23.2604 5.29687 23.6899C5.44898 23.9437 5.61491 24.1845 5.78776 24.4253C5.78776 24.4253 5.78776 24.4318 5.79468 24.4383C7.61995 26.9765 10.3233 28.9094 13.4968 29.8531L13.4899 29.8596Z" fill="white"/>
<path d="M25.5588 5.15406C25.5588 5.15406 25.5588 5.16057 25.5588 5.16708C25.0541 6.48172 24.6876 7.86144 24.4941 9.29974C24.3834 10.1132 24.3281 10.9463 24.3281 11.7923C24.3281 13.2502 24.501 14.6689 24.819 16.0291C25.6072 19.3613 27.308 22.368 29.6518 24.8086C31.3872 22.5503 32.4105 19.7778 32.4105 16.7776C32.4105 15.3523 32.1823 13.9726 31.7467 12.684C30.7027 9.53403 28.4765 6.87221 25.5588 5.15406Z" fill="white"/>
<path d="M41.7012 42.7033C40.9822 41.3431 40.0212 40.1196 38.8665 39.0848C37.7119 40.1196 36.7509 41.3431 36.0318 42.7033C35.3405 44.0049 34.8772 45.4367 34.6905 46.9401C34.6283 47.4477 34.5937 47.9683 34.5937 48.4955C34.5937 52.1921 36.2323 55.5373 38.8665 57.9062C41.5007 55.5373 43.1393 52.1921 43.1393 48.4955C43.1393 47.9683 43.1048 47.4542 43.0425 46.9401C42.8559 45.4302 42.3926 44.0049 41.7012 42.7033Z" fill="white"/>
<path d="M60.0273 52.9796C60.698 55.8432 63.4152 57.9844 66.6578 57.9844C70.2115 57.9844 73.1223 55.4202 73.4265 52.1531C70.8476 53.0122 68.0682 53.4808 65.1713 53.4808C63.4082 53.4808 61.6867 53.305 60.0273 52.9796Z" fill="white"/>
<path d="M76.3935 46.4181C76.4627 46.5352 76.5318 46.6524 76.594 46.7695C76.7669 46.5222 76.9259 46.2619 77.0642 45.9886C77.4859 45.1555 77.721 44.2249 77.721 43.2486C77.721 39.7147 74.6789 36.8511 70.9246 36.8511C69.2031 36.8511 67.6336 37.4499 66.4375 38.4456C70.6688 39.9165 74.1949 42.767 76.3935 46.4181Z" fill="white"/>
<path d="M57.0283 55.2714C57.3947 56.8594 57.5883 58.5059 57.5883 60.2046C57.5883 62.938 57.0836 65.5673 56.1641 68.0078C59.8907 67.9753 62.8982 65.1247 62.8982 61.6168C62.8982 58.3823 60.347 55.7075 57.0283 55.2779L57.0283 55.2714Z" fill="white"/>
<path d="M42.0521 61.4048C41.0081 62.5307 40.3789 64.0015 40.3789 65.6025C40.3789 69.1364 43.421 72 47.1753 72C47.9704 72 48.7309 71.8698 49.443 71.6355C49.9547 71.4663 50.4386 71.2385 50.888 70.9652C50.653 70.8481 50.4248 70.7244 50.1966 70.6007C46.4701 68.5247 43.5731 65.2771 42.0521 61.4113L42.0521 61.4048Z" fill="white"/>
<path d="M64.2314 42.1406C62.8486 41.7371 61.3828 41.5158 59.8618 41.5158C56.5569 41.5158 53.5148 42.5506 51.0742 44.2948C53.66 46.5792 56.8681 48.2387 60.4287 49.0327C61.9498 49.3711 63.5331 49.5469 65.1648 49.5469C66.347 49.5469 67.5017 49.4492 68.6217 49.2735C69.9353 49.0718 71.2075 48.7399 72.4244 48.3103C72.2722 48.0565 72.1063 47.8157 71.9335 47.5749C71.9335 47.5749 71.9335 47.5684 71.9265 47.5619C70.1013 45.0237 67.3979 43.0908 64.2245 42.1471L64.2314 42.1406Z" fill="white"/>
<path d="M52.1603 66.8359C52.1603 66.8359 52.1603 66.8294 52.1603 66.8229C52.665 65.5083 53.0314 64.1286 53.225 62.6903C53.3356 61.8768 53.3909 61.0437 53.3909 60.1977C53.3909 58.7398 53.2181 57.3211 52.9001 55.9609C52.1119 52.6287 50.4111 49.622 48.0672 47.1814C46.3318 49.4397 45.3086 52.2122 45.3086 55.2124C45.3086 56.6377 45.5368 58.0174 45.9723 59.306C47.0163 62.456 49.2426 65.1178 52.1603 66.8359Z" fill="white"/>
<path d="M42.2227 35.9975C44.7393 38.4771 48.2931 40.0195 52.2202 40.0195C56.1473 40.0195 59.701 38.4771 62.2177 35.9975C59.701 33.5179 56.1473 31.9755 52.2202 31.9755C48.2931 31.9755 44.7393 33.5179 42.2227 35.9975Z" fill="white"/>
<path d="M60.0312 19.0172C61.6906 18.6853 63.4122 18.5161 65.1752 18.5161C68.0721 18.5161 70.8515 18.9847 73.4304 19.8437C73.1262 16.5767 70.2154 14.0125 66.6617 14.0125C63.4191 14.0125 60.7019 16.1536 60.0312 19.0172Z" fill="white"/>
<path d="M66.4453 33.5579C67.6414 34.5471 69.2109 35.1523 70.9324 35.1523C74.6867 35.1523 77.7288 32.2888 77.7288 28.7549C77.7288 27.7721 77.4937 26.848 77.072 26.0149C76.9337 25.7416 76.7816 25.4878 76.6018 25.234C76.5327 25.3511 76.4705 25.4683 76.4013 25.5854C74.2027 29.2365 70.6835 32.087 66.4453 33.5579Z" fill="white"/>
<path d="M57.0322 16.7279C60.344 16.3048 62.9021 13.63 62.9021 10.389C62.9021 6.87457 59.8946 4.02402 56.168 3.99798C57.0875 6.43853 57.5922 9.06131 57.5922 11.8012C57.5922 13.4933 57.3986 15.1464 57.0322 16.7344L57.0322 16.7279Z" fill="white"/>
<path d="M40.3828 6.3921C40.3828 7.9996 41.012 9.47045 42.056 10.5898C43.577 6.71751 46.474 3.47646 50.2006 1.40037C50.4287 1.27021 50.6569 1.15306 50.8919 1.03591C50.4425 0.762573 49.9586 0.53479 49.4469 0.365578C48.7417 0.124777 47.9743 0.00112503 47.1792 0.00112506C43.4249 0.00112521 40.3828 2.8647 40.3828 6.39861L40.3828 6.3921Z" fill="white"/>
<path d="M51.082 27.7093C53.5226 29.4535 56.5648 30.4883 59.8696 30.4883C61.3907 30.4883 62.8564 30.267 64.2392 29.8635C67.4127 28.9263 70.116 26.9934 71.9413 24.4487C71.9413 24.4487 71.9413 24.4422 71.9482 24.4357C72.121 24.1949 72.287 23.9476 72.4391 23.7003C71.2222 23.2643 69.9501 22.9389 68.6364 22.7371C67.5164 22.5549 66.3548 22.4638 65.1795 22.4638C63.5478 22.4638 61.9645 22.6395 60.4435 22.9779C56.8759 23.7719 53.6678 25.4315 51.0889 27.7158L51.082 27.7093Z" fill="white"/>
<path d="M53.3988 11.7963C53.3988 10.9502 53.3434 10.1172 53.2328 9.30364C53.0392 7.87185 52.6728 6.49214 52.1681 5.17099C52.1681 5.17099 52.1681 5.16448 52.1681 5.15797C49.2504 6.87611 47.0241 9.53794 45.9801 12.6879C45.5515 13.983 45.3164 15.3562 45.3164 16.7815C45.3164 19.7817 46.3397 22.5542 48.0751 24.8125C50.4189 22.372 52.1197 19.3652 52.9079 16.033C53.2328 14.6663 53.3988 13.2476 53.3988 11.7963Z" fill="white"/>
</svg>
